<svg width="100" height="100" xmlns="http://www.w3.org/2000/svg">

 <g>
  <title>Layer 1</title>

  <g id="svg_21">
   <g stroke="null">
    <path stroke="null" d="m38.74368,11.66217c-0.05529,1.58345 0.85508,2.2826 0.87719,2.72954a0.65974,0.57145 0 0 1 -0.33171,0.43736l-1.03199,0.62572a0.85876,0.74384 0 0 1 -0.44965,0.13408c-0.03686,0 -0.66342,0.1277 -1.65119,-1.78777a6.33938,5.49101 0 0 1 -5.04939,2.05594c-1.3121,0.06385 -4.86879,-0.64487 -4.68819,-3.92671c-0.12531,-2.67208 2.74583,-4.33215 5.72018,-4.19168c0.57128,0 1.74333,0.02554 3.78888,0.43736l0,-1.09182c0.21745,-1.84843 -1.18679,-3.28184 -3.61197,-3.06475c-0.19534,0 -1.56642,-0.03512 -3.69674,0.70234c-0.59339,0.23943 -0.67079,0.20112 -0.86614,0.20112c-0.59708,0 -0.35383,-1.50045 -0.23957,-1.692c0.42017,-0.44694 2.89326,-1.28017 5.31844,-1.27059c1.6217,-0.12131 3.23234,0.30967 4.48916,1.20675a5.66858,4.90998 0 0 1 1.42636,3.65854l0,4.83656l-0.00369,0l0,0zm-6.96594,2.26664c2.61684,-0.03512 3.72254,-1.39829 3.97317,-2.12936c0.19903,-0.70234 0.16586,-1.14928 0.16586,-1.91547a13.85817,12.0036 0 0 0 -3.18812,-0.3384c-1.22365,-0.07981 -3.45349,0.39267 -3.36503,2.25068a2.2409,1.94101 0 0 0 2.41412,2.12936l0,0.00319zm13.78077,1.6058c-0.63394,0.05108 -0.92879,-0.3384 -1.02093,-0.72469l-4.0174,-11.496a3.07755,2.66569 0 0 1 -0.1548,-0.60018a0.36857,0.31925 0 0 1 0.31328,-0.36713l1.79124,0c0.70765,-0.06066 0.93985,0.4214 1.01356,0.72469l2.87852,9.83274l2.67581,-9.83274c0.04054,-0.22347 0.23589,-0.77257 1.03199,-0.71511l1.38213,0c0.17323,-0.01277 0.89562,-0.03192 1.02093,0.72469l2.69424,9.96044l2.97435,-9.96044c0.03686,-0.15324 0.22114,-0.79492 1.02093,-0.72469l1.59222,0c0.06634,-0.00958 0.49388,-0.05746 0.42385,0.60018c-0.03686,0.1277 0.27274,-0.74384 -4.25328,11.86313c-0.09583,0.38309 -0.39068,0.77576 -1.02462,0.72469l-1.50744,0c-0.88088,0.07981 -1.00619,-0.67361 -1.02094,-0.75022l-2.67212,-9.57734l-2.64264,9.56776c-0.01474,0.07662 -0.14005,0.83004 -1.02462,0.75022l-1.47427,0l0,0zm22.04776,0.39267c-0.47177,0 -2.73478,-0.01915 -4.62185,-0.85558a1.03199,0.89389 0 0 1 -0.63025,-0.83004l0,-0.75342c0,-0.5906 0.49757,-0.48206 0.71134,-0.41183c0.81085,0.28413 1.32685,0.49802 2.32198,0.67041c2.95592,0.52675 4.25328,-0.15962 4.57025,-0.31286a1.8539,1.6058 0 0 0 0.42754,-2.43903c-0.84771,-0.61614 -1.24945,-0.63849 -4.28645,-1.46853c-0.37225,-0.08939 -3.52351,-0.95135 -3.5272,-3.65535c-0.0516,-1.97293 2.01975,-3.92671 5.60224,-3.90755c1.02093,0 3.74465,0.28732 4.48179,1.09182c0.11057,0.14366 0.16217,0.31925 0.1548,0.49164l0,0.70234c0,0.31286 -0.13268,0.4661 -0.39437,0.4661c-0.6192,-0.05746 -1.7249,-0.77896 -3.96211,-0.75022c-0.55285,-0.02554 -3.2176,0.06385 -3.09597,1.74308c-0.03686,1.32486 2.14507,1.8197 2.3957,1.88035c2.93749,0.76619 3.92157,0.89389 5.08624,2.06551c1.38213,1.55153 0.63762,3.37123 0.35014,3.87244c-1.53693,2.61781 -5.51378,2.40391 -5.58381,2.40072l0,0z" fill="#000000" p-id="25764"/>
    <path stroke="null" d="m70.84967,22.75273c-5.64647,3.61066 -13.84343,5.5357 -20.84254,5.5357a37.82249,32.76089 0 0 1 -25.57865,-8.43125c-0.52705,-0.41502 -0.06266,-0.98008 0.57865,-0.66084a51.3858,44.5091 0 0 0 25.54916,5.8741a50.80715,44.00789 0 0 0 19.47515,-3.46061c0.95091,-0.35117 1.75439,0.54272 0.81822,1.1429l0,0zm2.35147,-2.3241c-0.72239,-0.8045 -4.77665,-0.37671 -6.59737,-0.18835c-0.54548,0.05427 -0.63762,-0.35755 -0.14374,-0.66084c3.23234,-1.96655 8.53973,-1.40468 9.14787,-0.74384c0.60814,0.66403 -0.16586,5.26754 -3.18812,7.46713c-0.4644,0.34159 -0.91036,0.15962 -0.70028,-0.28732c0.67817,-1.4813 2.20404,-4.78229 1.48165,-5.58678l0,0z" fill="#FF9900" p-id="25765"/>
   </g>
   <g stroke="null">
    <title stroke="null">Icon-Architecture/16/Arch_Amazon-RDS_16</title>
    <g stroke="null" fill-rule="evenodd" fill="none" id="svg_17">
     <g stroke="null" fill="#C925D1" id="svg_19">
      <rect stroke="null" height="65.45107" width="61.25758" y="32.19362" x="19.37121" id="svg_20"/>
     </g>
     <path stroke="null" fill="#FFFFFF" id="svg_18" d="m33.93775,45.82926l5.47745,5.85242l-1.80455,1.93081l-5.47745,-5.85514l0,4.88974l-2.5524,0l0,-8.18138c0,-0.75269 0.57174,-1.36356 1.2762,-1.36356l7.6572,0l0,2.72713l-4.57645,0zm5.47745,32.32737l-5.47745,5.85242l4.57645,0l0,2.72713l-7.6572,0c-0.70446,0 -1.2762,-0.61088 -1.2762,-1.36356l0,-8.18138l2.5524,0l0,4.88974l5.47745,-5.85514l1.80455,1.93081zm-7.28199,-13.23748c0,2.04535 2.46562,4.20523 6.42949,5.64243l-0.81677,2.58259c-5.18903,-1.87626 -8.16512,-4.8761 -8.16512,-8.22502c0,-3.34891 2.9761,-6.34875 8.16512,-8.22502l0.81677,2.58259c-3.96388,1.4372 -6.42949,3.59708 -6.42949,5.64243l0,0zm35.73359,12.27208l2.5524,0l0,8.18138c0,0.75269 -0.57174,1.36356 -1.2762,1.36356l-7.6572,0l0,-2.72713l4.57645,0l-5.48,-5.85242l1.80455,-1.93081l5.48,5.85514l0,-4.88974zm2.5524,-32.72554l0,8.18138l-2.5524,0l0,-4.88974l-5.48,5.85514l-1.80455,-1.93081l5.48,-5.85242l-4.57645,0l0,-2.72713l7.6572,0c0.70446,0 1.2762,0.61088 1.2762,1.36356l0,0zm0,20.45346c0,3.34891 -2.9761,6.34875 -8.16512,8.22502l-0.81932,-2.58259c3.96643,-1.4372 6.43205,-3.59708 6.43205,-5.64243c0,-2.04535 -2.46562,-4.20523 -6.43205,-5.64243l0.81932,-2.58259c5.18903,1.87626 8.16512,4.8761 8.16512,8.22502l0,0zm-20.41919,9.27769c-3.03735,0 -4.88274,-0.81268 -5.1048,-1.00904l0,-11.94755c1.43955,0.64088 3.3028,0.95177 5.1048,0.95177c1.8071,0 3.6729,-0.31089 5.11501,-0.95449l0.04084,11.7321c-0.27311,0.41452 -2.11849,1.22721 -5.15585,1.22721l0,0zm0,-17.45907c2.99652,0 4.74236,0.91631 5.07162,1.36356c-0.32926,0.44725 -2.0751,1.36356 -5.07162,1.36356c-3.1369,0 -4.90061,-1.00358 -5.1048,-1.27902l0,-0.02727c0.20419,-0.41725 1.9679,-1.42083 5.1048,-1.42083l0,0zm0,-2.72713c-3.68822,0 -7.6572,1.27902 -7.6572,4.09069l0,15.08647c0,2.58259 3.84647,3.73617 7.6572,3.73617c3.81073,0 7.6572,-1.15358 7.6572,-3.73617l0,-15.08647c0,-2.81167 -3.96898,-4.09069 -7.6572,-4.09069l0,0z"/>
    </g>
   </g>
  </g>
 </g>
</svg>